<svg xmlns="http://www.w3.org/2000/svg" viewBox="0 0 61 61"><defs><style>.cls-1{fill:#f5c914;}</style></defs><title>help icon</title><g id="Warstwa_2" data-name="Warstwa 2"><g id="Warstwa_1-2" data-name="Warstwa 1"><circle cx="30.5" cy="30.5" r="30.5"/><path class="cls-1" d="M27.72,36.22V34.69A8.9,8.9,0,0,1,28,32.63a6.84,6.84,0,0,1,.72-1.83A8.68,8.68,0,0,1,30,29a22.69,22.69,0,0,1,2-1.9,14.16,14.16,0,0,0,1.94-2,3.63,3.63,0,0,0,.7-2.27,3.41,3.41,0,0,0-1-2.45,3.82,3.82,0,0,0-2.85-1.07,4.49,4.49,0,0,0-3.15,1.2,5.44,5.44,0,0,0-1,1.25A6.3,6.3,0,0,0,26,23.2L20.68,21a10.33,10.33,0,0,1,1.18-2.6,10.22,10.22,0,0,1,2-2.34,10,10,0,0,1,6.64-2.33,11.84,11.84,0,0,1,4.08.67,9.63,9.63,0,0,1,3.17,1.85A8.38,8.38,0,0,1,39.85,19a8.79,8.79,0,0,1,.42,5.88,9.2,9.2,0,0,1-.88,2,10.72,10.72,0,0,1-1.3,1.73c-.49.54-1,1.08-1.57,1.6a18,18,0,0,0-1.32,1.34,6.37,6.37,0,0,0-.84,1.19A5.07,5.07,0,0,0,33.92,34a7.41,7.41,0,0,0-.13,1.48v.75Zm3,11.39a3.78,3.78,0,0,1-2.82-1.18,3.94,3.94,0,0,1-1.16-2.85,3.88,3.88,0,0,1,1.16-2.83,3.83,3.83,0,0,1,2.82-1.15,3.93,3.93,0,0,1,2.85,1.15,3.82,3.82,0,0,1,1.18,2.83,4,4,0,0,1-4,4Z"/></g></g></svg>