<svg xmlns="http://www.w3.org/2000/svg" viewBox="0 0 231.88 61.15"><defs><style>.cls-1{fill:#231f20;}</style></defs><title>logo black</title><g id="Warstwa_2" data-name="Warstwa 2"><g id="Warstwa_1-2" data-name="Warstwa 1"><path class="cls-1" d="M46.89,12.79a6.17,6.17,0,0,1-12.34,0V.45H28.38V12.79A12.33,12.33,0,0,0,40.72,25.13h0A12.33,12.33,0,0,0,53.05,12.79V.45H46.89Z"/><path class="cls-1" d="M12.34.45A12.34,12.34,0,0,0,0,12.79H0A12.33,12.33,0,0,0,12.34,25.13H24.68V12.79A12.35,12.35,0,0,0,12.34.45ZM18.51,19H12.34a6.17,6.17,0,1,1,6.17-6.17Z"/><polygon class="cls-1" points="72.49 25.13 72.49 6.62 81.74 6.62 81.74 0.45 72.49 0.45 66.32 0.45 57.07 0.45 57.07 6.62 66.32 6.62 66.32 25.13 72.49 25.13"/><path class="cls-1" d="M114.31,14.67a12.35,12.35,0,0,0,12.22,10.61,12.2,12.2,0,0,0,3.64-.55,11.39,11.39,0,0,0,2.33-1,12.72,12.72,0,0,0,4.1-3.69q-2.37-1.61-4.76-3.19a7,7,0,0,1-3.3,2.26,7.78,7.78,0,0,1-2,.31,6.8,6.8,0,0,1-6.48-4.76h18.82V12.34a12.41,12.41,0,0,0-.37-3,12.34,12.34,0,0,0-23.94,0,12.41,12.41,0,0,0-.37,3v.6h0a12.11,12.11,0,0,0,.12,1.72Zm12.22-8.82a6.77,6.77,0,0,1,5.92,3.48H120.61A6.76,6.76,0,0,1,126.53,5.85Z"/><path class="cls-1" d="M154.91.6a12.33,12.33,0,0,0-12.34,12.34V25.28h6.17V12.94a6.17,6.17,0,0,1,12.34,0V25.28h6.17V12.94A12.34,12.34,0,0,0,154.91.6Z"/><rect class="cls-1" x="199.33" y="0.6" width="6.17" height="24.68"/><path class="cls-1" d="M226.62,17.13l-.13.14-.14.15-.09.09-.36.32-.14.11-.33.25-.17.12-.34.21-.18.1-.18.09L224,19l-.19.07-.2.07-.19,0s0,0,0,0l-.31.08-.11,0-.15,0h-.08l-.36.06-.21,0a4.07,4.07,0,0,1-.5,0h-.38a.06.06,0,0,1-.06,0H221l-.26,0-.28,0-.54-.11-.25-.07h0l-.26-.09a2.5,2.5,0,0,1-.25-.09,6.94,6.94,0,0,1-1.19-.59l-.23-.15-.32-.24-.3-.25-.2-.18a6.24,6.24,0,0,1-.86-1l-.15-.22a3.13,3.13,0,0,1-.21-.34l-.19-.35c-.08-.16-.15-.33-.22-.49a6.69,6.69,0,0,1-.48-2.23,6.58,6.58,0,0,1,.48-2.23c.07-.17.14-.33.22-.49a3.9,3.9,0,0,1,.19-.35,2.39,2.39,0,0,1,.21-.34l.15-.22a6.31,6.31,0,0,1,.86-1l.2-.18.3-.25.32-.24.23-.14a6.32,6.32,0,0,1,1.19-.6l.25-.09.26-.08h0l.25-.07a5.17,5.17,0,0,1,.54-.11l.28,0,.26,0h.72l.5,0,.21,0,.36,0,.08,0,.15,0,.11,0a1.57,1.57,0,0,1,.31.08h0l.19.06.2.06.19.08c.19.07.37.15.56.24l.18.1.18.1a3.13,3.13,0,0,1,.34.21l.17.11.33.25.14.12c.13.1.24.21.36.32l.09.09a1.85,1.85,0,0,1,.14.14l.13.14a7.84,7.84,0,0,1,.5.64l4.76-3.16v0l-.17-.26-.49-.66L231,5c-.09-.12-.19-.23-.29-.34s-.31-.33-.47-.5L230,3.91l-.28-.25-.22-.18L229,3.12,228.78,3a12,12,0,0,0-1.27-.82L227.17,2c-.34-.17-.68-.33-1-.48l-.35-.13h0l-.37-.13-.31-.1L224.62,1l-.33-.08-.38-.08h0l-.39-.07L223.13.7l-.39,0-.36,0h-.85c-.31,0-.63,0-.94,0s-.46,0-.68.07l-.25,0-.3.05h0l-.3.06-.3.06h0l-.52.14-.07,0-.25.07-.31.11a5.14,5.14,0,0,0-.55.2l-.23.09-.32.14-.26.12a11.79,11.79,0,0,0-1.81,1.07l-.24.17-.23.18-.19.15c-.11.09-.22.18-.32.28l-.17.14L213,4a10.71,10.71,0,0,0-1.11,1.22l-.16.2-.34.45-.14.21-.15.23-.41.7c-.05.08-.09.17-.13.25l-.13.24c0,.08-.07.16-.11.25s-.15.33-.22.49v0l-.09.25c-.1.24-.18.49-.27.75a0,0,0,0,1,0,0c0,.14-.07.27-.11.4-.11.41-.2.82-.27,1.24,0,.09,0,.18,0,.27h0c0,.25-.06.51-.08.77,0,0,0,0,0,0s0,.13,0,.18,0,.12,0,.18,0,.19,0,.29v.29h0v.29c0,.09,0,.19,0,.28s0,.12,0,.18,0,.12,0,.18,0,0,0,0c0,.26,0,.51.08.76h0c0,.09,0,.19,0,.28a12.2,12.2,0,0,0,.27,1.23c0,.14.07.27.11.4a.06.06,0,0,1,0,0c.09.25.17.5.27.75l.09.25a0,0,0,0,1,0,0c.07.17.14.33.22.5a2.56,2.56,0,0,1,.11.24l.13.25c0,.08.08.16.13.24.13.24.27.47.41.7l.15.23.14.21c.11.15.22.31.34.45l.16.21A11.64,11.64,0,0,0,213,21.87a2.09,2.09,0,0,1,.22.2l.17.15.32.27.19.15.23.18.24.18a13.66,13.66,0,0,0,1.81,1.07l.26.11.32.14.23.1.55.2.31.1.25.07.07,0,.52.14h0l.3.06c.1,0,.2,0,.3.06h0l.3.05.25,0,.68.07c.31,0,.63,0,.94,0l.49,0h.36l.36,0,.39,0c.13,0,.27,0,.39-.06s.26,0,.39-.06h0l.38-.09.33-.07.48-.14.31-.1.37-.12h0l.35-.14a9.79,9.79,0,0,0,1-.48l.34-.18a11.89,11.89,0,0,0,1.27-.81l.23-.17.44-.35.22-.19L230,22l.27-.26.47-.49.29-.34.23-.28c.17-.21.33-.43.49-.66.06-.08.11-.17.17-.26h0l-4.76-3.17A6.43,6.43,0,0,1,226.62,17.13Z"/><path class="cls-1" d="M79.05,36.29A12.34,12.34,0,1,0,91.39,48.63,12.35,12.35,0,0,0,79.05,36.29Zm0,18.51a6.17,6.17,0,1,1,6.17-6.17A6.17,6.17,0,0,1,79.05,54.8Z"/><path class="cls-1" d="M107.9,36.29A12.35,12.35,0,0,0,95.56,48.63V61h6.17V48.63a6.17,6.17,0,1,1,12.34,0V61h6.17V48.63A12.34,12.34,0,0,0,107.9,36.29Z"/><path class="cls-1" d="M161.08,38.94a6.17,6.17,0,0,1-12.34,0V36.47h-6.17v2.47a12.34,12.34,0,0,0,9.25,12V61.15H158V50.89a12.35,12.35,0,0,0,9.26-12V36.47h-6.17Z"/><path class="cls-1" d="M130.12,48.81V36.47H124V48.81a12.34,12.34,0,0,0,12.34,12.34h7.4V55h-7.4A6.17,6.17,0,0,1,130.12,48.81Z"/><polygon class="cls-1" points="180.2 0.6 170.95 0.6 170.95 6.77 180.2 6.77 180.2 14.17 180.2 14.17 180.2 25.28 186.37 25.28 186.37 14.17 186.37 14.17 186.37 6.77 195.62 6.77 195.62 0.6 186.37 0.6 180.2 0.6"/><polygon class="cls-1" points="104.16 15.08 104.16 24.98 110.33 24.98 110.33 15.08 110.33 8.91 110.33 0.3 104.16 0.3 104.16 8.91 91.83 8.91 91.83 0.3 85.66 0.3 85.66 8.91 85.66 15.08 85.66 24.98 91.83 24.98 91.83 15.08 104.16 15.08"/></g></g></svg>